<svg xmlns="http://www.w3.org/2000/svg" viewBox="0 0 155 25" width="155" height="25">
  <path d="M0 24.0975L0 0.4725L8.20536 0.4725L12.2578 21.06L12.8606 21.06L16.9131 0.4725L25.1184 0.4725L25.1184 24.0975L20.8316 24.0975L20.8316 3.74625L20.2287 3.74625L16.2098 24.0975L8.90867 24.0975L4.88972 3.74625L4.28688 3.74625L4.28688 24.0975L0 24.0975Z" fill="#33f987" fill-rule="nonzero"/>
  <path d="M28.5291 24.0975L28.5291 0.4725L43.6001 0.4725L43.6001 4.5225L32.9499 4.5225L32.9499 10.1588L42.6624 10.1588L42.6624 14.2087L32.9499 14.2087L32.9499 20.0475L43.8011 20.0475L43.8011 24.0975L28.5291 24.0975Z" fill="#33f987" fill-rule="nonzero"/>
  <path d="M51.4944 24.0975L51.4944 4.5225L44.6622 4.5225L44.6622 0.4725L62.7474 0.4725L62.7474 4.5225L55.9152 4.5225L55.9152 24.0975L51.4944 24.0975Z" fill="#33f987" fill-rule="nonzero"/>
  <path d="M60.9871 24.0975L67.1494 0.4725L74.8524 0.4725L81.0148 24.0975L76.46 24.0975L75.1873 18.9L66.8145 18.9L65.5419 24.0975L60.9871 24.0975ZM67.8528 14.7825L74.1491 14.7825L71.3024 3.27375L70.6995 3.27375L67.8528 14.7825Z" fill="#33f987" fill-rule="nonzero"/>
  <path d="M86.0833 24.0975L86.0833 4.5225L79.251 4.5225L79.251 0.4725L97.3363 0.4725L97.3363 4.5225L90.5041 4.5225L90.5041 24.0975L86.0833 24.0975Z" fill="#ffffff" fill-rule="nonzero"/>
  <path d="M99.3421 24.0975L99.3421 0.4725L114.413 0.4725L114.413 4.5225L103.763 4.5225L103.763 10.1588L113.475 10.1588L113.475 14.2087L103.763 14.2087L103.763 20.0475L114.614 20.0475L114.614 24.0975L99.3421 24.0975Z" fill="#ffffff" fill-rule="nonzero"/>
  <path d="M125.791 24.57C122.888 24.57 120.588 23.76 118.891 22.14C117.194 20.4975 116.346 18.1575 116.346 15.12L116.346 9.45C116.346 6.4125 117.194 4.08375 118.891 2.46375C120.588 0.82125 122.888 0 125.791 0C128.671 0 130.892 0.79875 132.455 2.39625C134.041 3.97125 134.833 6.1425 134.833 8.91L134.833 9.1125L130.479 9.1125L130.479 8.775C130.479 7.38 130.089 6.2325 129.307 5.3325C128.548 4.4325 127.376 3.9825 125.791 3.9825C124.228 3.9825 123 4.46625 122.106 5.43375C121.213 6.40125 120.767 7.7175 120.767 9.3825L120.767 15.1875C120.767 16.83 121.213 18.1463 122.106 19.1363C123 20.1038 124.228 20.5875 125.791 20.5875C127.376 20.5875 128.548 20.1375 129.307 19.2375C130.089 18.315 130.479 17.1675 130.479 15.795L130.479 15.1875L134.833 15.1875L134.833 15.66C134.833 18.4275 134.041 20.61 132.455 22.2075C130.892 23.7825 128.671 24.57 125.791 24.57Z" fill="#ffffff" fill-rule="nonzero"/>
  <path d="M137.431 24.0975L137.431 0.4725L141.851 0.4725L141.851 10.2263L150.559 10.2263L150.559 0.4725L154.98 0.4725L154.98 24.0975L150.559 24.0975L150.559 14.2763L141.851 14.2763L141.851 24.0975L137.431 24.0975Z" fill="#ffffff" fill-rule="nonzero"/>
</svg>
