<svg xmlns="http://www.w3.org/2000/svg" viewBox="0 0 1001 159" width="1001" height="159">
  <path d="M0 155.942L0 3.05769L52.9976 3.05769L79.1719 136.286L83.0656 136.286L109.24 3.05769L162.237 3.05769L162.237 155.942L134.549 155.942L134.549 24.2431L130.655 24.2431L104.697 155.942L57.5402 155.942L31.5822 24.2431L27.6885 24.2431L27.6885 155.942L0 155.942Z" fill="#ffffff" fill-opacity="0.4000000059604645" fill-rule="nonzero"/>
  <path d="M184.266 155.942L184.266 3.05769L281.609 3.05769L281.609 29.2665L212.82 29.2665L212.82 65.7404L275.552 65.7404L275.552 91.9492L212.82 91.9492L212.82 129.734L282.907 129.734L282.907 155.942L184.266 155.942Z" fill="#ffffff" fill-opacity="0.4000000059604645" fill-rule="nonzero"/>
  <path d="M332.597 155.942L332.597 29.2665L288.468 29.2665L288.468 3.05769L405.279 3.05769L405.279 29.2665L361.151 29.2665L361.151 155.942L332.597 155.942Z" fill="#ffffff" fill-opacity="0.4000000059604645" fill-rule="nonzero"/>
  <path d="M393.909 155.942L433.711 3.05769L483.464 3.05769L523.266 155.942L493.847 155.942L485.627 122.308L431.548 122.308L423.328 155.942L393.909 155.942ZM438.254 95.6621L478.922 95.6621L460.535 21.1854L456.641 21.1854L438.254 95.6621Z" fill="#ffffff" fill-opacity="0.4000000059604645" fill-rule="nonzero"/>
  <path d="M556.003 155.942L556.003 29.2665L511.874 29.2665L511.874 3.05769L628.685 3.05769L628.685 29.2665L584.557 29.2665L584.557 155.942L556.003 155.942Z" fill="#ffffff" fill-opacity="0.4000000059604645" fill-rule="nonzero"/>
  <path d="M641.641 155.942L641.641 3.05769L738.983 3.05769L738.983 29.2665L670.194 29.2665L670.194 65.7404L732.926 65.7404L732.926 91.9492L670.194 91.9492L670.194 129.734L740.281 129.734L740.281 155.942L641.641 155.942Z" fill="#ffffff" fill-opacity="0.4000000059604645" fill-rule="nonzero"/>
  <path d="M812.468 159C793.721 159 778.867 153.758 767.907 143.275C756.947 132.646 751.467 117.503 751.467 97.8462L751.467 61.1538C751.467 41.4973 756.947 26.4272 767.907 15.9437C778.867 5.31456 793.721 0 812.468 0C831.071 0 845.42 5.16896 855.515 15.5069C865.754 25.6992 870.874 39.75 870.874 57.6593L870.874 58.9698L842.753 58.9698L842.753 56.7857C842.753 47.7582 840.229 40.3324 835.181 34.5082C830.278 28.6841 822.707 25.772 812.468 25.772C802.373 25.772 794.442 28.9025 788.673 35.1635C782.905 41.4244 780.021 49.9423 780.021 60.717L780.021 98.283C780.021 108.912 782.905 117.43 788.673 123.837C794.442 130.098 802.373 133.228 812.468 133.228C822.707 133.228 830.278 130.316 835.181 124.492C840.229 118.522 842.753 111.096 842.753 102.214L842.753 98.283L870.874 98.283L870.874 101.341C870.874 119.25 865.754 133.374 855.515 143.712C845.42 153.904 831.071 159 812.468 159Z" fill="#ffffff" fill-opacity="0.4000000059604645" fill-rule="nonzero"/>
  <path d="M887.65 155.942L887.65 3.05769L916.204 3.05769L916.204 66.1772L972.446 66.1772L972.446 3.05769L1001 3.05769L1001 155.942L972.446 155.942L972.446 92.386L916.204 92.386L916.204 155.942L887.65 155.942Z" fill="#ffffff" fill-opacity="0.4000000059604645" fill-rule="nonzero"/>
</svg>
