<svg xmlns="http://www.w3.org/2000/svg" viewBox="0 0 147 40" width="147" height="40">
  <path d="M0 20.5092L0 2.38747L2.32558 2.38747L13.3793 16.9712L13.3793 2.38747L15.59 2.38747L15.59 20.5092L13.2645 20.5092L2.21074 5.78171L2.21074 20.5092L0 20.5092ZM33.5918 19.7901C32.1275 20.3367 30.5484 20.6243 28.8832 20.6243C22.3371 20.6243 19.0641 17.489 19.0641 11.1895C19.0641 5.23518 22.2223 2.24365 28.5387 2.24365C30.3475 2.24365 32.0414 2.50253 33.5918 2.99153L33.5918 5.00506C32.0414 4.401 30.4336 4.11336 28.7971 4.11336C23.8588 4.11336 21.3896 6.47206 21.3896 11.1319C21.3896 16.1658 23.8301 18.6683 28.6822 18.6683C29.4574 18.6683 30.3187 18.5532 31.2662 18.3519L31.2662 12.2825L33.5918 12.2825L33.5918 19.7901ZM37.3242 13.5194L37.3242 2.38747L39.6498 2.38747L39.6498 13.5194C39.6498 17 41.3725 18.7546 44.8465 18.7546C48.2918 18.7546 50.0432 17 50.0432 13.5194L50.0432 2.38747L52.3687 2.38747L52.3687 13.5194C52.3687 18.2656 49.8709 20.6531 44.8465 20.6531C39.8221 20.6531 37.3242 18.2656 37.3242 13.5194ZM58.8574 2.38747L58.8574 18.6108L68.332 18.6108L68.332 20.5092L56.5318 20.5092L56.5318 2.38747L58.8574 2.38747ZM71.6912 20.5092L69.2508 20.5092L78.2373 0L87.2238 20.5092L84.6398 20.5092L82.3143 14.8138L76.3424 14.8138L76.974 12.9154L81.5391 12.9154L78.1512 4.71742L71.6912 20.5092ZM89.7217 20.5092L89.7217 2.38747L97.4449 2.38747C100.89 2.38747 102.613 3.82571 102.613 6.73095C102.613 9.08965 100.919 10.8443 97.5598 11.9661L103.761 20.5092L100.689 20.5092L94.9471 12.3688L94.9471 10.8443C98.3924 10.2978 100.144 8.97459 100.144 6.846C100.144 5.17765 99.1963 4.34347 97.2727 4.34347L92.1047 4.34347L92.1047 20.5092L89.7217 20.5092Z" fill="#b52e31" fill-rule="evenodd" transform="translate(43.2386474609375 9.060791015625)"/>
  <path d="M0 6.61589L18.5186 0L37.5252 6.50083L34.4531 31.0371L18.5186 39.8679L2.84238 31.1522L0 6.61589Z" fill="#e23237" fill-rule="evenodd"/>
  <path d="M19.0066 6.50083L0 0L0 39.8679L15.9346 31.0371L19.0066 6.50083Z" fill="#b52e31" fill-rule="evenodd" transform="translate(18.5185546875 0)"/>
  <path d="M11.5418 0L0 25.7157L4.30664 25.6294L6.63223 19.8189L16.9395 19.8189L19.466 25.6869L23.5717 25.7732L11.5418 0ZM11.5705 8.25548L15.4752 16.4247L8.15391 16.4247L11.5705 8.25548Z" fill="#ffffff" fill-rule="evenodd" transform="translate(7.0054931640625 4.659912109375)"/>
</svg>
